<?xml version="1.0" encoding="UTF-8" standalone="no"?>
<svg width="405px" height="40px" viewBox="0 0 405 40" version="1.1" xmlns="http://www.w3.org/2000/svg" xmlns:xlink="http://www.w3.org/1999/xlink">
    <!-- Generator: Sketch 41 (35326) - http://www.bohemiancoding.com/sketch -->
    <title>Logo Outlined</title>
    <desc>Created with Sketch.</desc>
    <defs>
        <polygon id="path-1" points="30.3068515 0.0337739872 0.000121505013 0.0337739872 0.000121505013 38.4322527 30.3068515 38.4322527 30.3068515 0.0337739872"></polygon>
    </defs>
    <g id="Symbols" stroke="none" stroke-width="1" fill="none" fill-rule="evenodd">
        <g id="Logo-Outlined">
            <path d="M213.842773,18.1806641 C212.840164,18.1806641 212.033694,17.833174 211.42334,17.1381836 C210.812985,16.4431931 210.507812,15.5244198 210.507812,14.3818359 C210.507812,13.2327417 210.814613,12.3139683 211.428223,11.6254883 C212.041832,10.9370083 212.861323,10.5927734 213.886719,10.5927734 C214.908859,10.5927734 215.727536,10.9361945 216.342773,11.6230469 C216.958011,12.3098993 217.265625,13.2262313 217.265625,14.3720703 C217.265625,15.5406959 216.958011,16.4676073 216.342773,17.152832 C215.727536,17.8380568 214.894211,18.1806641 213.842773,18.1806641 Z M213.857422,17.4140625 C214.596358,17.4140625 215.167641,17.1479519 215.571289,16.6157227 C215.974937,16.0834934 216.176758,15.3323616 216.176758,14.3623047 C216.176758,13.4215448 215.974123,12.685875 215.568848,12.1552734 C215.163572,11.6246718 214.602868,11.359375 213.886719,11.359375 C213.167314,11.359375 212.605796,11.6254856 212.202148,12.1577148 C211.798501,12.6899441 211.59668,13.4296828 211.59668,14.3769531 C211.59668,15.3209683 211.796873,16.0631483 212.197266,16.6035156 C212.597658,17.1438829 213.151038,17.4140625 213.857422,17.4140625 Z M218.730469,18 L218.730469,12.6972656 L219.692383,12.6972656 L219.692383,13.6933594 C220.200198,12.9511682 220.821936,12.5800781 221.557617,12.5800781 C222.016604,12.5800781 222.382811,12.7257472 222.65625,13.0170898 C222.929689,13.3084324 223.066406,13.6998673 223.066406,14.1914062 L223.066406,18 L222.104492,18 L222.104492,14.5039062 C222.104492,14.1100241 222.046713,13.8292652 221.931152,13.6616211 C221.815592,13.493977 221.62435,13.4101562 221.357422,13.4101562 C220.768226,13.4101562 220.213219,13.7958946 219.692383,14.5673828 L219.692383,18 L218.730469,18 Z M230.834961,17.3261719 C230.258786,17.8567735 229.703779,18.1220703 229.169922,18.1220703 C228.730467,18.1220703 228.365887,17.9845391 228.076172,17.7094727 C227.786457,17.4344062 227.641602,17.0869162 227.641602,16.6669922 C227.641602,16.0875622 227.884926,15.6424169 228.371582,15.331543 C228.858238,15.020669 229.55566,14.8652344 230.463867,14.8652344 L230.693359,14.8652344 L230.693359,14.2255859 C230.693359,13.6103485 230.377607,13.3027344 229.746094,13.3027344 C229.238279,13.3027344 228.689782,13.4589828 228.100586,13.7714844 L228.100586,12.9755859 C228.748376,12.7119127 229.355466,12.5800781 229.921875,12.5800781 C230.514326,12.5800781 230.951333,12.7135403 231.23291,12.9804688 C231.514487,13.2473972 231.655273,13.6624321 231.655273,14.2255859 L231.655273,16.6279297 C231.655273,17.1780626 231.824543,17.453125 232.163086,17.453125 C232.205404,17.453125 232.267252,17.4466146 232.348633,17.4335938 L232.416992,17.9658203 C232.198892,18.0699875 231.958009,18.1220703 231.694336,18.1220703 C231.245115,18.1220703 230.958659,17.8567735 230.834961,17.3261719 Z M230.693359,16.8037109 L230.693359,15.4316406 L230.371094,15.421875 C229.843747,15.421875 229.417319,15.5219717 229.091797,15.722168 C228.766274,15.9223643 228.603516,16.1852197 228.603516,16.5107422 C228.603516,16.7418631 228.684895,16.9371737 228.847656,17.0966797 C229.010417,17.2561857 229.208983,17.3359375 229.443359,17.3359375 C229.843752,17.3359375 230.260415,17.1585304 230.693359,16.8037109 Z M236.787109,18 L236.787109,10.2900391 L237.749023,10.2900391 L237.749023,18 L236.787109,18 Z M241.75293,18.1220703 C240.994462,18.1220703 240.389,17.870608 239.936523,17.3676758 C239.484047,16.8647436 239.257812,16.191736 239.257812,15.3486328 C239.257812,14.495764 239.484861,13.8211288 239.938965,13.324707 C240.393069,12.8282853 241.009111,12.5800781 241.787109,12.5800781 C242.565108,12.5800781 243.18115,12.8282853 243.635254,13.324707 C244.089358,13.8211288 244.316406,14.4925088 244.316406,15.3388672 C244.316406,16.2047569 244.088544,16.8850887 243.632812,17.3798828 C243.177081,17.874677 242.55046,18.1220703 241.75293,18.1220703 Z M241.767578,17.3994141 C242.786463,17.3994141 243.295898,16.712572 243.295898,15.3388672 C243.295898,13.9814385 242.792974,13.3027344 241.787109,13.3027344 C240.7845,13.3027344 240.283203,13.9846937 240.283203,15.3486328 C240.283203,16.7158271 240.77799,17.3994141 241.767578,17.3994141 Z M245.820312,18 L245.820312,12.6972656 L246.782227,12.6972656 L246.782227,13.6933594 C247.290042,12.9511682 247.91178,12.5800781 248.647461,12.5800781 C249.106448,12.5800781 249.472655,12.7257472 249.746094,13.0170898 C250.019533,13.3084324 250.15625,13.6998673 250.15625,14.1914062 L250.15625,18 L249.194336,18 L249.194336,14.5039062 C249.194336,14.1100241 249.136557,13.8292652 249.020996,13.6616211 C248.905436,13.493977 248.714194,13.4101562 248.447266,13.4101562 C247.85807,13.4101562 247.303063,13.7958946 246.782227,14.5673828 L246.782227,18 L245.820312,18 Z M252.045898,19.7626953 L252.158203,18.9277344 C252.714847,19.1914076 253.263344,19.3232422 253.803711,19.3232422 C254.887701,19.3232422 255.429688,18.7487037 255.429688,17.5996094 L255.429688,16.7646484 C255.074868,17.5068396 254.492192,17.8779297 253.681641,17.8779297 C253.046872,17.8779297 252.54232,17.6468122 252.167969,17.1845703 C251.793618,16.7223284 251.606445,16.0989623 251.606445,15.3144531 C251.606445,14.5071574 251.819659,13.8496119 252.246094,13.3417969 C252.672528,12.8339818 253.22428,12.5800781 253.901367,12.5800781 C254.493818,12.5800781 255.003253,12.8209611 255.429688,13.3027344 L255.429688,12.6972656 L256.396484,12.6972656 L256.396484,16.5546875 C256.396484,17.3847698 256.353353,17.9991842 256.26709,18.3979492 C256.180826,18.7967142 256.018881,19.1230456 255.78125,19.3769531 C255.361326,19.8229189 254.708663,20.0458984 253.823242,20.0458984 C253.20475,20.0458984 252.612308,19.9514983 252.045898,19.7626953 Z M255.429688,16.1640625 L255.429688,13.9619141 C255.006508,13.5224587 254.545901,13.3027344 254.047852,13.3027344 C253.605141,13.3027344 253.258465,13.4801415 253.007812,13.8349609 C252.75716,14.1897804 252.631836,14.6764292 252.631836,15.2949219 C252.631836,16.4570371 253.04036,17.0380859 253.857422,17.0380859 C254.414065,17.0380859 254.938149,16.7467477 255.429688,16.1640625 Z M265.3125,17.8291016 C264.667966,18.024415 264.116213,18.1220703 263.657227,18.1220703 C262.875973,18.1220703 262.238772,17.86247 261.745605,17.3432617 C261.252439,16.8240534 261.005859,16.1510458 261.005859,15.3242188 C261.005859,14.5201783 261.223142,13.8610052 261.657715,13.3466797 C262.092287,12.8323542 262.648109,12.5751953 263.325195,12.5751953 C263.966475,12.5751953 264.462075,12.8030576 264.812012,13.2587891 C265.161948,13.7145205 265.336914,14.3623005 265.336914,15.2021484 L265.332031,15.5 L261.987305,15.5 C262.127279,16.7597719 262.744135,17.3896484 263.837891,17.3896484 C264.238283,17.3896484 264.729815,17.2822276 265.3125,17.0673828 L265.3125,17.8291016 Z M262.03125,14.7773438 L264.370117,14.7773438 C264.370117,13.7910107 264.002282,13.2978516 263.266602,13.2978516 C262.527666,13.2978516 262.115886,13.7910107 262.03125,14.7773438 Z M266.99707,18 L266.99707,12.6972656 L267.958984,12.6972656 L267.958984,13.6933594 C268.466799,12.9511682 269.088538,12.5800781 269.824219,12.5800781 C270.283205,12.5800781 270.649413,12.7257472 270.922852,13.0170898 C271.19629,13.3084324 271.333008,13.6998673 271.333008,14.1914062 L271.333008,18 L270.371094,18 L270.371094,14.5039062 C270.371094,14.1100241 270.313314,13.8292652 270.197754,13.6616211 C270.082193,13.493977 269.890952,13.4101562 269.624023,13.4101562 C269.034828,13.4101562 268.47982,13.7958946 267.958984,14.5673828 L267.958984,18 L266.99707,18 Z M275.27832,18.1220703 C274.519853,18.1220703 273.91439,17.870608 273.461914,17.3676758 C273.009438,16.8647436 272.783203,16.191736 272.783203,15.3486328 C272.783203,14.495764 273.010252,13.8211288 273.464355,13.324707 C273.918459,12.8282853 274.534501,12.5800781 275.3125,12.5800781 C276.090499,12.5800781 276.706541,12.8282853 277.160645,13.324707 C277.614748,13.8211288 277.841797,14.4925088 277.841797,15.3388672 C277.841797,16.2047569 277.613935,16.8850887 277.158203,17.3798828 C276.702472,17.874677 276.07585,18.1220703 275.27832,18.1220703 Z M275.292969,17.3994141 C276.311854,17.3994141 276.821289,16.712572 276.821289,15.3388672 C276.821289,13.9814385 276.318364,13.3027344 275.3125,13.3027344 C274.309891,13.3027344 273.808594,13.9846937 273.808594,15.3486328 C273.808594,16.7158271 274.30338,17.3994141 275.292969,17.3994141 Z M282.661133,18 L282.661133,17.0039062 C282.150063,17.7493527 281.529952,18.1220703 280.800781,18.1220703 C280.338539,18.1220703 279.970704,17.9764012 279.697266,17.6850586 C279.423827,17.393716 279.287109,17.0006535 279.287109,16.5058594 L279.287109,12.6972656 L280.249023,12.6972656 L280.249023,16.1933594 C280.249023,16.5904968 280.306803,16.8728833 280.422363,17.0405273 C280.537924,17.2081714 280.730793,17.2919922 281.000977,17.2919922 C281.586917,17.2919922 282.140297,16.9062539 282.661133,16.1347656 L282.661133,12.6972656 L283.623047,12.6972656 L283.623047,18 L282.661133,18 Z M285.571289,19.7626953 L285.683594,18.9277344 C286.240237,19.1914076 286.788734,19.3232422 287.329102,19.3232422 C288.413091,19.3232422 288.955078,18.7487037 288.955078,17.5996094 L288.955078,16.7646484 C288.600259,17.5068396 288.017582,17.8779297 287.207031,17.8779297 C286.572262,17.8779297 286.06771,17.6468122 285.693359,17.1845703 C285.319009,16.7223284 285.131836,16.0989623 285.131836,15.3144531 C285.131836,14.5071574 285.34505,13.8496119 285.771484,13.3417969 C286.197919,12.8339818 286.749671,12.5800781 287.426758,12.5800781 C288.019209,12.5800781 288.528644,12.8209611 288.955078,13.3027344 L288.955078,12.6972656 L289.921875,12.6972656 L289.921875,16.5546875 C289.921875,17.3847698 289.878744,17.9991842 289.79248,18.3979492 C289.706217,18.7967142 289.544272,19.1230456 289.306641,19.3769531 C288.886717,19.8229189 288.234054,20.0458984 287.348633,20.0458984 C286.73014,20.0458984 286.137698,19.9514983 285.571289,19.7626953 Z M288.955078,16.1640625 L288.955078,13.9619141 C288.531899,13.5224587 288.071292,13.3027344 287.573242,13.3027344 C287.130532,13.3027344 286.783855,13.4801415 286.533203,13.8349609 C286.282551,14.1897804 286.157227,14.6764292 286.157227,15.2949219 C286.157227,16.4570371 286.565751,17.0380859 287.382812,17.0380859 C287.939456,17.0380859 288.463539,16.7467477 288.955078,16.1640625 Z M291.787109,18 L291.787109,10.2900391 L292.749023,10.2900391 L292.749023,13.6933594 C293.256838,12.9511682 293.878577,12.5800781 294.614258,12.5800781 C295.073244,12.5800781 295.439452,12.7257472 295.712891,13.0170898 C295.986329,13.3084324 296.123047,13.6998673 296.123047,14.1914062 L296.123047,18 L295.161133,18 L295.161133,14.5039062 C295.161133,14.1100241 295.103353,13.8292652 294.987793,13.6616211 C294.872232,13.493977 294.680991,13.4101562 294.414062,13.4101562 C293.824867,13.4101562 293.269859,13.7958946 292.749023,14.5673828 L292.749023,18 L291.787109,18 Z M302.749023,18.1220703 C302.26074,18.1220703 301.879884,17.9820978 301.606445,17.7021484 C301.333006,17.4221991 301.196289,17.0332056 301.196289,16.5351562 L301.196289,13.4199219 L300.532227,13.4199219 L300.532227,12.6972656 L301.196289,12.6972656 L301.196289,11.7353516 L302.158203,11.6425781 L302.158203,12.6972656 L303.544922,12.6972656 L303.544922,13.4199219 L302.158203,13.4199219 L302.158203,16.359375 C302.158203,17.0527378 302.457679,17.3994141 303.056641,17.3994141 C303.183594,17.3994141 303.338215,17.3782554 303.520508,17.3359375 L303.520508,18 C303.224282,18.0813806 302.967123,18.1220703 302.749023,18.1220703 Z M304.897461,18 L304.897461,12.6972656 L305.859375,12.6972656 L305.859375,18 L304.897461,18 Z M304.897461,11.7353516 L304.897461,10.7734375 L305.859375,10.7734375 L305.859375,11.7353516 L304.897461,11.7353516 Z M307.788086,18 L307.788086,12.6972656 L308.75,12.6972656 L308.75,13.6933594 C309.218752,12.9511682 309.82096,12.5800781 310.556641,12.5800781 C311.26628,12.5800781 311.749673,12.9511682 312.006836,13.6933594 C312.462567,12.9479129 313.055009,12.5751953 313.78418,12.5751953 C314.252932,12.5751953 314.615884,12.7127265 314.873047,12.987793 C315.13021,13.2628594 315.258789,13.647784 315.258789,14.1425781 L315.258789,18 L314.291992,18 L314.291992,14.2939453 C314.291992,13.6884735 314.052737,13.3857422 313.574219,13.3857422 C313.076169,13.3857422 312.553714,13.7389288 312.006836,14.4453125 L312.006836,18 L311.040039,18 L311.040039,14.2939453 C311.040039,13.6852183 310.795901,13.3808594 310.307617,13.3808594 C309.822589,13.3808594 309.303388,13.7356735 308.75,14.4453125 L308.75,18 L307.788086,18 Z M321.010742,17.8291016 C320.366208,18.024415 319.814455,18.1220703 319.355469,18.1220703 C318.574215,18.1220703 317.937014,17.86247 317.443848,17.3432617 C316.950681,16.8240534 316.704102,16.1510458 316.704102,15.3242188 C316.704102,14.5201783 316.921385,13.8610052 317.355957,13.3466797 C317.79053,12.8323542 318.346351,12.5751953 319.023438,12.5751953 C319.664717,12.5751953 320.160317,12.8030576 320.510254,13.2587891 C320.860191,13.7145205 321.035156,14.3623005 321.035156,15.2021484 L321.030273,15.5 L317.685547,15.5 C317.825522,16.7597719 318.442377,17.3896484 319.536133,17.3896484 C319.936525,17.3896484 320.428057,17.2822276 321.010742,17.0673828 L321.010742,17.8291016 Z M317.729492,14.7773438 L320.068359,14.7773438 C320.068359,13.7910107 319.700525,13.2978516 318.964844,13.2978516 C318.225908,13.2978516 317.814128,13.7910107 317.729492,14.7773438 Z M322.695312,18 L322.695312,10.2900391 L323.657227,10.2900391 L323.657227,18 L322.695312,18 Z M325.585938,18 L325.585938,12.6972656 L326.547852,12.6972656 L326.547852,18 L325.585938,18 Z M325.585938,11.7353516 L325.585938,10.7734375 L326.547852,10.7734375 L326.547852,11.7353516 L325.585938,11.7353516 Z M328.476562,18 L328.476562,12.6972656 L329.438477,12.6972656 L329.438477,13.6933594 C329.946292,12.9511682 330.56803,12.5800781 331.303711,12.5800781 C331.762698,12.5800781 332.128905,12.7257472 332.402344,13.0170898 C332.675783,13.3084324 332.8125,13.6998673 332.8125,14.1914062 L332.8125,18 L331.850586,18 L331.850586,14.5039062 C331.850586,14.1100241 331.792807,13.8292652 331.677246,13.6616211 C331.561686,13.493977 331.370444,13.4101562 331.103516,13.4101562 C330.51432,13.4101562 329.959313,13.7958946 329.438477,14.5673828 L329.438477,18 L328.476562,18 Z M338.569336,17.8291016 C337.924801,18.024415 337.373049,18.1220703 336.914062,18.1220703 C336.132809,18.1220703 335.495608,17.86247 335.002441,17.3432617 C334.509275,16.8240534 334.262695,16.1510458 334.262695,15.3242188 C334.262695,14.5201783 334.479978,13.8610052 334.914551,13.3466797 C335.349123,12.8323542 335.904945,12.5751953 336.582031,12.5751953 C337.22331,12.5751953 337.718911,12.8030576 338.068848,13.2587891 C338.418784,13.7145205 338.59375,14.3623005 338.59375,15.2021484 L338.588867,15.5 L335.244141,15.5 C335.384115,16.7597719 336.000971,17.3896484 337.094727,17.3896484 C337.495119,17.3896484 337.986651,17.2822276 338.569336,17.0673828 L338.569336,17.8291016 Z M335.288086,14.7773438 L337.626953,14.7773438 C337.626953,13.7910107 337.259118,13.2978516 336.523438,13.2978516 C335.784502,13.2978516 335.372722,13.7910107 335.288086,14.7773438 Z M345.009766,18.1220703 C344.521482,18.1220703 344.140626,17.9820978 343.867188,17.7021484 C343.593749,17.4221991 343.457031,17.0332056 343.457031,16.5351562 L343.457031,13.4199219 L342.792969,13.4199219 L342.792969,12.6972656 L343.457031,12.6972656 L343.457031,11.7353516 L344.418945,11.6425781 L344.418945,12.6972656 L345.805664,12.6972656 L345.805664,13.4199219 L344.418945,13.4199219 L344.418945,16.359375 C344.418945,17.0527378 344.718421,17.3994141 345.317383,17.3994141 C345.444337,17.3994141 345.598957,17.3782554 345.78125,17.3359375 L345.78125,18 C345.485025,18.0813806 345.227866,18.1220703 345.009766,18.1220703 Z M347.158203,18 L347.158203,10.2900391 L348.120117,10.2900391 L348.120117,13.6933594 C348.627932,12.9511682 349.249671,12.5800781 349.985352,12.5800781 C350.444338,12.5800781 350.810546,12.7257472 351.083984,13.0170898 C351.357423,13.3084324 351.494141,13.6998673 351.494141,14.1914062 L351.494141,18 L350.532227,18 L350.532227,14.5039062 C350.532227,14.1100241 350.474447,13.8292652 350.358887,13.6616211 C350.243326,13.493977 350.052085,13.4101562 349.785156,13.4101562 C349.195961,13.4101562 348.640953,13.7958946 348.120117,14.5673828 L348.120117,18 L347.158203,18 Z M357.250977,17.8291016 C356.606442,18.024415 356.05469,18.1220703 355.595703,18.1220703 C354.814449,18.1220703 354.177249,17.86247 353.684082,17.3432617 C353.190916,16.8240534 352.944336,16.1510458 352.944336,15.3242188 C352.944336,14.5201783 353.161619,13.8610052 353.596191,13.3466797 C354.030764,12.8323542 354.586585,12.5751953 355.263672,12.5751953 C355.904951,12.5751953 356.400552,12.8030576 356.750488,13.2587891 C357.100425,13.7145205 357.275391,14.3623005 357.275391,15.2021484 L357.270508,15.5 L353.925781,15.5 C354.065756,16.7597719 354.682612,17.3896484 355.776367,17.3896484 C356.17676,17.3896484 356.668291,17.2822276 357.250977,17.0673828 L357.250977,17.8291016 Z M353.969727,14.7773438 L356.308594,14.7773438 C356.308594,13.7910107 355.940759,13.2978516 355.205078,13.2978516 C354.466142,13.2978516 354.054362,13.7910107 353.969727,14.7773438 Z M363.505859,18.1220703 C363.066404,18.1220703 362.532555,18.0195323 361.904297,17.8144531 L361.904297,16.9306641 C362.532555,17.2431656 363.079425,17.3994141 363.544922,17.3994141 C363.821616,17.3994141 364.051106,17.324545 364.233398,17.1748047 C364.415691,17.0250644 364.506836,16.8378917 364.506836,16.6132812 C364.506836,16.2845036 364.251305,16.0126964 363.740234,15.7978516 L363.178711,15.5585938 C362.348629,15.2135399 361.933594,14.7171256 361.933594,14.0693359 C361.933594,13.607094 362.097166,13.2433281 362.424316,12.9780273 C362.751466,12.7127265 363.199867,12.5800781 363.769531,12.5800781 C364.065757,12.5800781 364.431964,12.6207678 364.868164,12.7021484 L365.068359,12.7412109 L365.068359,13.5419922 C364.531247,13.3824862 364.104819,13.3027344 363.789062,13.3027344 C363.17057,13.3027344 362.861328,13.5273415 362.861328,13.9765625 C362.861328,14.2662775 363.095701,14.5104157 363.564453,14.7089844 L364.02832,14.9042969 C364.552411,15.1256521 364.923502,15.359211 365.141602,15.6049805 C365.359702,15.8507499 365.46875,16.1575502 365.46875,16.5253906 C365.46875,16.9908877 365.284833,17.3733709 364.916992,17.6728516 C364.549152,17.9723322 364.078779,18.1220703 363.505859,18.1220703 Z M370.512695,18 L370.512695,17.0039062 C370.001625,17.7493527 369.381514,18.1220703 368.652344,18.1220703 C368.190102,18.1220703 367.822267,17.9764012 367.548828,17.6850586 C367.275389,17.393716 367.138672,17.0006535 367.138672,16.5058594 L367.138672,12.6972656 L368.100586,12.6972656 L368.100586,16.1933594 C368.100586,16.5904968 368.158365,16.8728833 368.273926,17.0405273 C368.389486,17.2081714 368.582355,17.2919922 368.852539,17.2919922 C369.438479,17.2919922 369.991859,16.9062539 370.512695,16.1347656 L370.512695,12.6972656 L371.474609,12.6972656 L371.474609,18 L370.512695,18 Z M373.40332,18 L373.40332,12.6972656 L374.365234,12.6972656 L374.365234,13.6933594 C374.746096,12.9511682 375.299476,12.5800781 376.025391,12.5800781 C376.123047,12.5800781 376.225585,12.5882161 376.333008,12.6044922 L376.333008,13.5029297 C376.166991,13.4475909 376.020508,13.4199219 375.893555,13.4199219 C375.284828,13.4199219 374.775393,13.7812464 374.365234,14.5039062 L374.365234,18 L373.40332,18 Z M378.59375,18 L376.621094,12.6972656 L377.583008,12.6972656 L379.125977,16.8232422 L380.751953,12.6972656 L381.650391,12.6972656 L379.555664,18 L378.59375,18 Z M382.670898,18 L382.670898,12.6972656 L383.632812,12.6972656 L383.632812,18 L382.670898,18 Z M382.670898,11.7353516 L382.670898,10.7734375 L383.632812,10.7734375 L383.632812,11.7353516 L382.670898,11.7353516 Z M386.660156,18 L384.6875,12.6972656 L385.649414,12.6972656 L387.192383,16.8232422 L388.818359,12.6972656 L389.716797,12.6972656 L387.62207,18 L386.660156,18 Z M393.47168,17.3261719 C392.895505,17.8567735 392.340497,18.1220703 391.806641,18.1220703 C391.367185,18.1220703 391.002606,17.9845391 390.712891,17.7094727 C390.423176,17.4344062 390.27832,17.0869162 390.27832,16.6669922 C390.27832,16.0875622 390.521645,15.6424169 391.008301,15.331543 C391.494957,15.020669 392.192378,14.8652344 393.100586,14.8652344 L393.330078,14.8652344 L393.330078,14.2255859 C393.330078,13.6103485 393.014326,13.3027344 392.382812,13.3027344 C391.874997,13.3027344 391.3265,13.4589828 390.737305,13.7714844 L390.737305,12.9755859 C391.385094,12.7119127 391.992185,12.5800781 392.558594,12.5800781 C393.151045,12.5800781 393.588052,12.7135403 393.869629,12.9804688 C394.151206,13.2473972 394.291992,13.6624321 394.291992,14.2255859 L394.291992,16.6279297 C394.291992,17.1780626 394.461261,17.453125 394.799805,17.453125 C394.842123,17.453125 394.903971,17.4466146 394.985352,17.4335938 L395.053711,17.9658203 C394.835611,18.0699875 394.594728,18.1220703 394.331055,18.1220703 C393.881834,18.1220703 393.595378,17.8567735 393.47168,17.3261719 Z M393.330078,16.8037109 L393.330078,15.4316406 L393.007812,15.421875 C392.480466,15.421875 392.054038,15.5219717 391.728516,15.722168 C391.402993,15.9223643 391.240234,16.1852197 391.240234,16.5107422 C391.240234,16.7418631 391.321614,16.9371737 391.484375,17.0966797 C391.647136,17.2561857 391.845702,17.3359375 392.080078,17.3359375 C392.480471,17.3359375 392.897133,17.1585304 393.330078,16.8037109 Z M396.259766,18 L396.259766,10.2900391 L397.22168,10.2900391 L397.22168,18 L396.259766,18 Z M210.961914,30 L210.961914,24.6972656 L211.923828,24.6972656 L211.923828,25.6933594 C212.304689,24.9511682 212.858069,24.5800781 213.583984,24.5800781 C213.681641,24.5800781 213.784179,24.5882161 213.891602,24.6044922 L213.891602,25.5029297 C213.725585,25.4475909 213.579102,25.4199219 213.452148,25.4199219 C212.843421,25.4199219 212.333986,25.7812464 211.923828,26.5039062 L211.923828,30 L210.961914,30 Z M217.788086,29.3261719 C217.211911,29.8567735 216.656904,30.1220703 216.123047,30.1220703 C215.683592,30.1220703 215.319012,29.9845391 215.029297,29.7094727 C214.739582,29.4344062 214.594727,29.0869162 214.594727,28.6669922 C214.594727,28.0875622 214.838051,27.6424169 215.324707,27.331543 C215.811363,27.020669 216.508785,26.8652344 217.416992,26.8652344 L217.646484,26.8652344 L217.646484,26.2255859 C217.646484,25.6103485 217.330732,25.3027344 216.699219,25.3027344 C216.191404,25.3027344 215.642907,25.4589828 215.053711,25.7714844 L215.053711,24.9755859 C215.701501,24.7119127 216.308591,24.5800781 216.875,24.5800781 C217.467451,24.5800781 217.904458,24.7135403 218.186035,24.9804688 C218.467612,25.2473972 218.608398,25.6624321 218.608398,26.2255859 L218.608398,28.6279297 C218.608398,29.1780626 218.777668,29.453125 219.116211,29.453125 C219.158529,29.453125 219.220377,29.4466146 219.301758,29.4335938 L219.370117,29.9658203 C219.152017,30.0699875 218.911134,30.1220703 218.647461,30.1220703 C218.19824,30.1220703 217.911784,29.8567735 217.788086,29.3261719 Z M217.646484,28.8037109 L217.646484,27.4316406 L217.324219,27.421875 C216.796872,27.421875 216.370444,27.5219717 216.044922,27.722168 C215.719399,27.9223643 215.556641,28.1852197 215.556641,28.5107422 C215.556641,28.7418631 215.63802,28.9371737 215.800781,29.0966797 C215.963542,29.2561857 216.162108,29.3359375 216.396484,29.3359375 C216.796877,29.3359375 217.21354,29.1585304 217.646484,28.8037109 Z M222.167969,30.1220703 C221.679685,30.1220703 221.298829,29.9820978 221.025391,29.7021484 C220.751952,29.4221991 220.615234,29.0332056 220.615234,28.5351562 L220.615234,25.4199219 L219.951172,25.4199219 L219.951172,24.6972656 L220.615234,24.6972656 L220.615234,23.7353516 L221.577148,23.6425781 L221.577148,24.6972656 L222.963867,24.6972656 L222.963867,25.4199219 L221.577148,25.4199219 L221.577148,28.359375 C221.577148,29.0527378 221.876625,29.3994141 222.475586,29.3994141 C222.60254,29.3994141 222.757161,29.3782554 222.939453,29.3359375 L222.939453,30 C222.643228,30.0813806 222.386069,30.1220703 222.167969,30.1220703 Z M228.203125,29.8291016 C227.558591,30.024415 227.006838,30.1220703 226.547852,30.1220703 C225.766598,30.1220703 225.129397,29.86247 224.63623,29.3432617 C224.143064,28.8240534 223.896484,28.1510458 223.896484,27.3242188 C223.896484,26.5201783 224.113767,25.8610052 224.54834,25.3466797 C224.982912,24.8323542 225.538734,24.5751953 226.21582,24.5751953 C226.8571,24.5751953 227.3527,24.8030576 227.702637,25.2587891 C228.052573,25.7145205 228.227539,26.3623005 228.227539,27.2021484 L228.222656,27.5 L224.87793,27.5 C225.017904,28.7597719 225.63476,29.3896484 226.728516,29.3896484 C227.128908,29.3896484 227.62044,29.2822276 228.203125,29.0673828 L228.203125,29.8291016 Z M224.921875,26.7773438 L227.260742,26.7773438 C227.260742,25.7910107 226.892907,25.2978516 226.157227,25.2978516 C225.418291,25.2978516 225.006511,25.7910107 224.921875,26.7773438 Z M234.199219,25.4199219 L234.199219,30 L233.232422,30 L233.232422,25.4199219 L232.480469,25.4199219 L232.480469,24.6972656 L233.232422,24.6972656 L233.232422,24.0625 C233.232422,22.7994729 233.808588,22.1679688 234.960938,22.1679688 C235.283205,22.1679688 235.649412,22.2216792 236.05957,22.3291016 L236.05957,23.0908203 C235.626625,22.9573561 235.279949,22.890625 235.019531,22.890625 C234.703774,22.890625 234.488119,22.9663078 234.372559,23.1176758 C234.256998,23.2690437 234.199219,23.5498026 234.199219,23.9599609 L234.199219,24.6972656 L235.522461,24.6972656 L235.522461,25.4199219 L234.199219,25.4199219 Z M238.803711,30.1220703 C238.045244,30.1220703 237.439781,29.870608 236.987305,29.3676758 C236.534828,28.8647436 236.308594,28.191736 236.308594,27.3486328 C236.308594,26.495764 236.535642,25.8211288 236.989746,25.324707 C237.44385,24.8282853 238.059892,24.5800781 238.837891,24.5800781 C239.615889,24.5800781 240.231931,24.8282853 240.686035,25.324707 C241.140139,25.8211288 241.367188,26.4925088 241.367188,27.3388672 C241.367188,28.2047569 241.139325,28.8850887 240.683594,29.3798828 C240.227862,29.874677 239.601241,30.1220703 238.803711,30.1220703 Z M238.818359,29.3994141 C239.837245,29.3994141 240.34668,28.712572 240.34668,27.3388672 C240.34668,25.9814385 239.843755,25.3027344 238.837891,25.3027344 C237.835281,25.3027344 237.333984,25.9846937 237.333984,27.3486328 C237.333984,28.7158271 237.828771,29.3994141 238.818359,29.3994141 Z M242.871094,30 L242.871094,24.6972656 L243.833008,24.6972656 L243.833008,25.6933594 C244.213869,24.9511682 244.767249,24.5800781 245.493164,24.5800781 C245.590821,24.5800781 245.693359,24.5882161 245.800781,24.6044922 L245.800781,25.5029297 C245.634765,25.4475909 245.488282,25.4199219 245.361328,25.4199219 C244.752601,25.4199219 244.243166,25.7812464 243.833008,26.5039062 L243.833008,30 L242.871094,30 Z M254.013672,29.8291016 C253.369137,30.024415 252.817385,30.1220703 252.358398,30.1220703 C251.577145,30.1220703 250.939944,29.86247 250.446777,29.3432617 C249.953611,28.8240534 249.707031,28.1510458 249.707031,27.3242188 C249.707031,26.5201783 249.924314,25.8610052 250.358887,25.3466797 C250.793459,24.8323542 251.34928,24.5751953 252.026367,24.5751953 C252.667646,24.5751953 253.163247,24.8030576 253.513184,25.2587891 C253.86312,25.7145205 254.038086,26.3623005 254.038086,27.2021484 L254.033203,27.5 L250.688477,27.5 C250.828451,28.7597719 251.445307,29.3896484 252.539062,29.3896484 C252.939455,29.3896484 253.430987,29.2822276 254.013672,29.0673828 L254.013672,29.8291016 Z M250.732422,26.7773438 L253.071289,26.7773438 C253.071289,25.7910107 252.703454,25.2978516 251.967773,25.2978516 C251.228837,25.2978516 250.817058,25.7910107 250.732422,26.7773438 Z M256.796875,30 L254.824219,24.6972656 L255.786133,24.6972656 L257.329102,28.8232422 L258.955078,24.6972656 L259.853516,24.6972656 L257.758789,30 L256.796875,30 Z M264.760742,29.8291016 C264.116208,30.024415 263.564455,30.1220703 263.105469,30.1220703 C262.324215,30.1220703 261.687014,29.86247 261.193848,29.3432617 C260.700681,28.8240534 260.454102,28.1510458 260.454102,27.3242188 C260.454102,26.5201783 260.671385,25.8610052 261.105957,25.3466797 C261.54053,24.8323542 262.096351,24.5751953 262.773438,24.5751953 C263.414717,24.5751953 263.910317,24.8030576 264.260254,25.2587891 C264.610191,25.7145205 264.785156,26.3623005 264.785156,27.2021484 L264.780273,27.5 L261.435547,27.5 C261.575522,28.7597719 262.192377,29.3896484 263.286133,29.3896484 C263.686525,29.3896484 264.178057,29.2822276 264.760742,29.0673828 L264.760742,29.8291016 Z M261.479492,26.7773438 L263.818359,26.7773438 C263.818359,25.7910107 263.450525,25.2978516 262.714844,25.2978516 C261.975908,25.2978516 261.564128,25.7910107 261.479492,26.7773438 Z M266.445312,30 L266.445312,24.6972656 L267.407227,24.6972656 L267.407227,25.6933594 C267.788088,24.9511682 268.341468,24.5800781 269.067383,24.5800781 C269.16504,24.5800781 269.267578,24.5882161 269.375,24.6044922 L269.375,25.5029297 C269.208984,25.4475909 269.062501,25.4199219 268.935547,25.4199219 C268.32682,25.4199219 267.817385,25.7812464 267.407227,26.5039062 L267.407227,30 L266.445312,30 Z M270.844727,31.9287109 L271.704102,30 L269.65332,24.6972656 L270.693359,24.6972656 L272.211914,28.6914062 L273.833008,24.6972656 L274.741211,24.6972656 L271.845703,31.9287109 L270.844727,31.9287109 Z M277.836914,30.1220703 C277.078447,30.1220703 276.472984,29.870608 276.020508,29.3676758 C275.568032,28.8647436 275.341797,28.191736 275.341797,27.3486328 C275.341797,26.495764 275.568845,25.8211288 276.022949,25.324707 C276.477053,24.8282853 277.093095,24.5800781 277.871094,24.5800781 C278.649092,24.5800781 279.265134,24.8282853 279.719238,25.324707 C280.173342,25.8211288 280.400391,26.4925088 280.400391,27.3388672 C280.400391,28.2047569 280.172528,28.8850887 279.716797,29.3798828 C279.261065,29.874677 278.634444,30.1220703 277.836914,30.1220703 Z M277.851562,29.3994141 C278.870448,29.3994141 279.379883,28.712572 279.379883,27.3388672 C279.379883,25.9814385 278.876958,25.3027344 277.871094,25.3027344 C276.868485,25.3027344 276.367188,25.9846937 276.367188,27.3486328 C276.367188,28.7158271 276.861974,29.3994141 277.851562,29.3994141 Z M281.904297,30 L281.904297,24.6972656 L282.866211,24.6972656 L282.866211,25.6933594 C283.374026,24.9511682 283.995765,24.5800781 284.731445,24.5800781 C285.190432,24.5800781 285.556639,24.7257472 285.830078,25.0170898 C286.103517,25.3084324 286.240234,25.6998673 286.240234,26.1914062 L286.240234,30 L285.27832,30 L285.27832,26.5039062 C285.27832,26.1100241 285.220541,25.8292652 285.10498,25.6616211 C284.98942,25.493977 284.798178,25.4101562 284.53125,25.4101562 C283.942054,25.4101562 283.387047,25.7958946 282.866211,26.5673828 L282.866211,30 L281.904297,30 Z M291.99707,29.8291016 C291.352536,30.024415 290.800784,30.1220703 290.341797,30.1220703 C289.560543,30.1220703 288.923342,29.86247 288.430176,29.3432617 C287.937009,28.8240534 287.69043,28.1510458 287.69043,27.3242188 C287.69043,26.5201783 287.907713,25.8610052 288.342285,25.3466797 C288.776858,24.8323542 289.332679,24.5751953 290.009766,24.5751953 C290.651045,24.5751953 291.146645,24.8030576 291.496582,25.2587891 C291.846519,25.7145205 292.021484,26.3623005 292.021484,27.2021484 L292.016602,27.5 L288.671875,27.5 C288.81185,28.7597719 289.428705,29.3896484 290.522461,29.3896484 C290.922854,29.3896484 291.414385,29.2822276 291.99707,29.0673828 L291.99707,29.8291016 Z M288.71582,26.7773438 L291.054688,26.7773438 C291.054688,25.7910107 290.686853,25.2978516 289.951172,25.2978516 C289.212236,25.2978516 288.800456,25.7910107 288.71582,26.7773438 Z M300.249023,30 L300.249023,29.0039062 C299.858396,29.7493527 299.26921,30.1220703 298.481445,30.1220703 C297.843421,30.1220703 297.34131,29.8893252 296.975098,29.4238281 C296.608885,28.958331 296.425781,28.3219441 296.425781,27.5146484 C296.425781,26.6324826 296.633299,25.9228542 297.04834,25.3857422 C297.463381,24.8486301 298.009437,24.5800781 298.686523,24.5800781 C299.314782,24.5800781 299.83561,24.8209611 300.249023,25.3027344 L300.249023,22.2900391 L301.21582,22.2900391 L301.21582,30 L300.249023,30 Z M300.249023,25.9619141 C299.750974,25.5224587 299.278974,25.3027344 298.833008,25.3027344 C297.911779,25.3027344 297.451172,26.0074799 297.451172,27.4169922 C297.451172,28.6572328 297.861324,29.2773438 298.681641,29.2773438 C299.215497,29.2773438 299.737953,28.9860055 300.249023,28.4033203 L300.249023,25.9619141 Z M303.139648,30 L303.139648,24.6972656 L304.101562,24.6972656 L304.101562,25.6933594 C304.482424,24.9511682 305.035804,24.5800781 305.761719,24.5800781 C305.859375,24.5800781 305.961914,24.5882161 306.069336,24.6044922 L306.069336,25.5029297 C305.903319,25.4475909 305.756837,25.4199219 305.629883,25.4199219 C305.021156,25.4199219 304.511721,25.7812464 304.101562,26.5039062 L304.101562,30 L303.139648,30 Z M309.306641,30.1220703 C308.548173,30.1220703 307.942711,29.870608 307.490234,29.3676758 C307.037758,28.8647436 306.811523,28.191736 306.811523,27.3486328 C306.811523,26.495764 307.038572,25.8211288 307.492676,25.324707 C307.94678,24.8282853 308.562822,24.5800781 309.34082,24.5800781 C310.118819,24.5800781 310.734861,24.8282853 311.188965,25.324707 C311.643069,25.8211288 311.870117,26.4925088 311.870117,27.3388672 C311.870117,28.2047569 311.642255,28.8850887 311.186523,29.3798828 C310.730792,29.874677 310.104171,30.1220703 309.306641,30.1220703 Z M309.321289,29.3994141 C310.340174,29.3994141 310.849609,28.712572 310.849609,27.3388672 C310.849609,25.9814385 310.346685,25.3027344 309.34082,25.3027344 C308.338211,25.3027344 307.836914,25.9846937 307.836914,27.3486328 C307.836914,28.7158271 308.331701,29.3994141 309.321289,29.3994141 Z M313.374023,31.9287109 L313.374023,24.6972656 L314.335938,24.6972656 L314.335938,25.6933594 C314.72982,24.9511682 315.320634,24.5800781 316.108398,24.5800781 C316.746422,24.5800781 317.248533,24.8128232 317.614746,25.2783203 C317.980959,25.7438174 318.164062,26.3802043 318.164062,27.1875 C318.164062,28.0664106 317.956545,28.7752252 317.541504,29.3139648 C317.126463,29.8527045 316.580407,30.1220703 315.90332,30.1220703 C315.275062,30.1220703 314.752606,29.8811873 314.335938,29.3994141 L314.335938,31.9287109 L313.374023,31.9287109 Z M314.335938,28.7353516 C314.830732,29.1780621 315.302732,29.3994141 315.751953,29.3994141 C316.676437,29.3994141 317.138672,28.6946685 317.138672,27.2851562 C317.138672,26.0416604 316.72852,25.4199219 315.908203,25.4199219 C315.371091,25.4199219 314.847008,25.7112601 314.335938,26.2939453 L314.335938,28.7353516 Z M321.074219,30.1220703 C320.634763,30.1220703 320.100915,30.0195323 319.472656,29.8144531 L319.472656,28.9306641 C320.100915,29.2431656 320.647784,29.3994141 321.113281,29.3994141 C321.389975,29.3994141 321.619465,29.324545 321.801758,29.1748047 C321.98405,29.0250644 322.075195,28.8378917 322.075195,28.6132812 C322.075195,28.2845036 321.819664,28.0126964 321.308594,27.7978516 L320.74707,27.5585938 C319.916988,27.2135399 319.501953,26.7171256 319.501953,26.0693359 C319.501953,25.607094 319.665526,25.2433281 319.992676,24.9780273 C320.319826,24.7127265 320.768226,24.5800781 321.337891,24.5800781 C321.634116,24.5800781 322.000323,24.6207678 322.436523,24.7021484 L322.636719,24.7412109 L322.636719,25.5419922 C322.099607,25.3824862 321.673179,25.3027344 321.357422,25.3027344 C320.738929,25.3027344 320.429688,25.5273415 320.429688,25.9765625 C320.429688,26.2662775 320.66406,26.5104157 321.132812,26.7089844 L321.59668,26.9042969 C322.120771,27.1256521 322.491861,27.359211 322.709961,27.6049805 C322.928061,27.8507499 323.037109,28.1575502 323.037109,28.5253906 C323.037109,28.9908877 322.853192,29.3733709 322.485352,29.6728516 C322.117511,29.9723322 321.647138,30.1220703 321.074219,30.1220703 Z M329.521484,30.1220703 C329.033201,30.1220703 328.652345,29.9820978 328.378906,29.7021484 C328.105467,29.4221991 327.96875,29.0332056 327.96875,28.5351562 L327.96875,25.4199219 L327.304688,25.4199219 L327.304688,24.6972656 L327.96875,24.6972656 L327.96875,23.7353516 L328.930664,23.6425781 L328.930664,24.6972656 L330.317383,24.6972656 L330.317383,25.4199219 L328.930664,25.4199219 L328.930664,28.359375 C328.930664,29.0527378 329.23014,29.3994141 329.829102,29.3994141 C329.956055,29.3994141 330.110676,29.3782554 330.292969,29.3359375 L330.292969,30 C329.996743,30.0813806 329.739584,30.1220703 329.521484,30.1220703 Z M333.745117,30.1220703 C332.98665,30.1220703 332.381187,29.870608 331.928711,29.3676758 C331.476235,28.8647436 331.25,28.191736 331.25,27.3486328 C331.25,26.495764 331.477049,25.8211288 331.931152,25.324707 C332.385256,24.8282853 333.001298,24.5800781 333.779297,24.5800781 C334.557296,24.5800781 335.173338,24.8282853 335.627441,25.324707 C336.081545,25.8211288 336.308594,26.4925088 336.308594,27.3388672 C336.308594,28.2047569 336.080731,28.8850887 335.625,29.3798828 C335.169269,29.874677 334.542647,30.1220703 333.745117,30.1220703 Z M333.759766,29.3994141 C334.778651,29.3994141 335.288086,28.712572 335.288086,27.3388672 C335.288086,25.9814385 334.785161,25.3027344 333.779297,25.3027344 C332.776688,25.3027344 332.275391,25.9846937 332.275391,27.3486328 C332.275391,28.7158271 332.770177,29.3994141 333.759766,29.3994141 Z M340.615234,30 L340.615234,29.2773438 L343.896484,25.4199219 L340.766602,25.4199219 L340.766602,24.6972656 L345.083008,24.6972656 L345.083008,25.4199219 L341.801758,29.2773438 L345.146484,29.2773438 L345.146484,30 L340.615234,30 Z M350.595703,29.8291016 C349.951169,30.024415 349.399416,30.1220703 348.94043,30.1220703 C348.159176,30.1220703 347.521975,29.86247 347.028809,29.3432617 C346.535642,28.8240534 346.289062,28.1510458 346.289062,27.3242188 C346.289062,26.5201783 346.506345,25.8610052 346.940918,25.3466797 C347.37549,24.8323542 347.931312,24.5751953 348.608398,24.5751953 C349.249678,24.5751953 349.745278,24.8030576 350.095215,25.2587891 C350.445151,25.7145205 350.620117,26.3623005 350.620117,27.2021484 L350.615234,27.5 L347.270508,27.5 C347.410482,28.7597719 348.027338,29.3896484 349.121094,29.3896484 C349.521486,29.3896484 350.013018,29.2822276 350.595703,29.0673828 L350.595703,29.8291016 Z M347.314453,26.7773438 L349.65332,26.7773438 C349.65332,25.7910107 349.285485,25.2978516 348.549805,25.2978516 C347.810869,25.2978516 347.399089,25.7910107 347.314453,26.7773438 Z M352.280273,30 L352.280273,24.6972656 L353.242188,24.6972656 L353.242188,25.6933594 C353.623049,24.9511682 354.176429,24.5800781 354.902344,24.5800781 C355,24.5800781 355.102539,24.5882161 355.209961,24.6044922 L355.209961,25.5029297 C355.043944,25.4475909 354.897462,25.4199219 354.770508,25.4199219 C354.161781,25.4199219 353.652346,25.7812464 353.242188,26.5039062 L353.242188,30 L352.280273,30 Z M358.447266,30.1220703 C357.688798,30.1220703 357.083336,29.870608 356.630859,29.3676758 C356.178383,28.8647436 355.952148,28.191736 355.952148,27.3486328 C355.952148,26.495764 356.179197,25.8211288 356.633301,25.324707 C357.087405,24.8282853 357.703447,24.5800781 358.481445,24.5800781 C359.259444,24.5800781 359.875486,24.8282853 360.32959,25.324707 C360.783694,25.8211288 361.010742,26.4925088 361.010742,27.3388672 C361.010742,28.2047569 360.78288,28.8850887 360.327148,29.3798828 C359.871417,29.874677 359.244796,30.1220703 358.447266,30.1220703 Z M358.461914,29.3994141 C359.480799,29.3994141 359.990234,28.712572 359.990234,27.3388672 C359.990234,25.9814385 359.48731,25.3027344 358.481445,25.3027344 C357.478836,25.3027344 356.977539,25.9846937 356.977539,27.3486328 C356.977539,28.7158271 357.472326,29.3994141 358.461914,29.3994141 Z M362.529297,30 L362.529297,28.7939453 L363.735352,28.7939453 L363.735352,30 L362.529297,30 Z" id="On-a-long-enough-tim" fill="#000000"></path>
            <path d="M190.75,8 L190.75,32.7000122" id="divider" stroke="#D6D6D6" stroke-width="1.5"></path>
            <g id="logo">
                <path d="M38.85,28 L54.75,28 L55.65,23.25 L55.15,23.25 C54.4,25.775 53.4,26.95 50.7,26.95 L42.7,26.95 L54.6,11.1 L54.6,10.75 L39.975,10.75 L39.625,15.275 L40.125,15.275 C40.475,12.1 42.35,11.8 45.15,11.8 L50.725,11.8 L38.775,27.65 L38.85,28 Z M59.7394738,20.025 C59.7644738,18.45 61.0894738,16.75 62.7394738,16.75 C64.7894738,16.75 65.4394738,18.2 65.4394738,20.025 L59.7394738,20.025 Z M67.8394738,20.775 C67.8144738,18.075 66.0394738,16 63.3144738,16 C59.6644738,16 57.7894738,19.25 57.7894738,22.575 C57.7894738,25.825 59.7644738,28.25 63.1394738,28.25 C65.6394738,28.25 67.4894738,26.075 68.4644738,24 L68.0394738,23.725 C67.1894738,25.025 65.8894738,26.35 63.7144738,26.35 C60.9894738,26.35 59.6894738,23.9 59.6894738,21.1 L59.6894738,20.775 L67.8394738,20.775 Z M70.6539475,28 L76.9539475,28 L76.9539475,27.5 C75.1039475,27.5 74.8289475,27.225 74.8289475,25.25 L74.8289475,19.425 C74.8289475,19.3 75.8039475,17.7 76.7039475,17.7 C77.0039475,17.7 77.1789475,17.875 77.3789475,18.05 C77.5789475,18.225 77.8289475,18.4 78.2289475,18.4 C78.8539475,18.4 79.4289475,17.925 79.4289475,17.275 C79.4289475,16.45 78.7039475,16 77.9539475,16 C76.7289475,16 75.5539475,17.425 74.8289475,18.225 L74.8289475,16 L74.7039475,16 C73.4289475,16.45 72.0289475,16.85 70.6539475,17.2 L70.6539475,17.7 C72.4039475,17.7 72.6289475,17.925 72.6289475,19.725 L72.6289475,25.2 C72.6289475,27.05 72.5539475,27.4 70.6539475,27.5 L70.6539475,28 Z M83.6184213,21.3 C83.6184213,19.075 84.4684213,16.75 87.0184213,16.75 C90.0434213,16.75 90.8184213,20.475 90.8184213,23.15 C90.8184213,25 89.8934213,27.5 87.6684213,27.5 C84.6184213,27.5 83.6184213,23.725 83.6184213,21.3 Z M93.2184213,22.175 C93.2184213,18.4 91.0184213,16 87.1934213,16 C83.7934213,16 81.2184213,18.8 81.2184213,22.175 C81.2184213,25.625 83.6934213,28.25 87.1934213,28.25 C90.5934213,28.25 93.2184213,25.575 93.2184213,22.175 Z M95.5078951,28 L103.607895,28 L103.607895,27.5 C101.607895,27.5 100.907895,27.1 100.907895,25.05 L100.907895,19.425 L109.832895,19.425 L109.832895,25.05 C109.832895,27.1 109.132895,27.5 107.132895,27.5 L107.132895,28 L115.232895,28 L115.232895,27.5 C113.232895,27.5 112.532895,27.1 112.532895,25.05 L112.532895,13.7 C112.532895,11.65 113.232895,11.25 115.232895,11.25 L115.232895,10.75 L107.132895,10.75 L107.132895,11.25 C109.132895,11.25 109.832895,11.65 109.832895,13.7 L109.832895,18.375 L100.907895,18.375 L100.907895,13.7 C100.907895,11.65 101.607895,11.25 103.607895,11.25 L103.607895,10.75 L95.5078951,10.75 L95.5078951,11.25 C97.5078951,11.25 98.2078951,11.65 98.2078951,13.7 L98.2078951,25.05 C98.2078951,27.1 97.5078951,27.5 95.5078951,27.5 L95.5078951,28 Z M119.472369,20.025 C119.497369,18.45 120.822369,16.75 122.472369,16.75 C124.522369,16.75 125.172369,18.2 125.172369,20.025 L119.472369,20.025 Z M127.572369,20.775 C127.547369,18.075 125.772369,16 123.047369,16 C119.397369,16 117.522369,19.25 117.522369,22.575 C117.522369,25.825 119.497369,28.25 122.872369,28.25 C125.372369,28.25 127.222369,26.075 128.197369,24 L127.772369,23.725 C126.922369,25.025 125.622369,26.35 123.447369,26.35 C120.722369,26.35 119.422369,23.9 119.422369,21.1 L119.422369,20.775 L127.572369,20.775 Z M133.011843,21.7 C133.011843,19.525 133.886843,16.75 136.411843,16.75 C137.711843,16.75 138.711843,17.35 139.286843,18.6 C139.411843,18.85 139.411843,19.575 139.411843,20.175 L139.411843,25.825 C139.411843,26.2 138.261843,26.7 136.886843,26.7 C134.186843,26.7 133.011843,24.025 133.011843,21.7 Z M139.411843,17.175 C138.461843,16.375 137.661843,16 136.411843,16 C133.236843,16 130.811843,19.05 130.811843,22.475 C130.811843,27.725 134.611843,28.25 135.836843,28.25 C137.186843,28.25 138.386843,27.875 139.461843,26.525 L139.511843,26.525 L139.511843,28.25 C140.686843,27.825 141.911843,27.475 143.136843,27.2 L143.136843,26.7 C141.711843,26.7 141.611843,26.35 141.611843,24.9 L141.611843,10.125 C140.436843,10.375 139.036843,10.925 137.711843,11.2 L137.711843,11.7 L137.986843,11.7 C138.686843,11.7 139.411843,11.85 139.411843,12.675 L139.411843,17.175 Z M146.726316,30.5 C146.726316,29.65 147.626316,28.525 147.976316,28.4 C154.801316,28.4 155.401316,28.75 155.376316,30 C155.376316,31.8 152.701316,32.6 151.351316,32.6 C149.951316,32.6 146.726316,32.525 146.726316,30.5 Z M150.276316,16.75 C152.151316,16.75 152.726316,19.6 152.726316,21.025 C152.726316,22.2 152.276316,23.725 150.826316,23.725 C148.901316,23.725 148.351316,20.875 148.351316,19.4 C148.351316,16.9 149.801316,16.75 150.276316,16.75 Z M156.351316,16.925 L153.351316,16.925 C153.176316,16.875 152.701316,16 150.501316,16 C148.251316,16 146.151316,18 146.151316,20.275 C146.151316,22.025 146.751316,23.125 148.226316,24.075 C147.576316,24.625 146.326316,25.825 146.326316,26.75 C146.326316,27.375 146.701316,27.95 147.251316,28.2 C146.526316,28.9 145.276316,30.25 145.276316,31.325 C145.276316,33.3 147.751316,33.85 149.301316,33.85 C152.126316,33.85 156.501316,32.475 156.501316,29.125 C156.501316,26.5 153.026316,26.775 151.201316,26.7 C148.651316,26.6 148.076316,26.4 148.076316,25.45 C148.076316,24.775 148.626316,24.4 148.926316,24.4 C149.026316,24.4 149.326316,24.475 150.376316,24.475 C153.001316,24.475 154.926316,22.75 154.926316,20.125 C154.926316,19.35 154.651316,18.6 154.326316,17.85 L156.351316,17.85 L156.351316,16.925 Z M160.74079,20.025 C160.76579,18.45 162.09079,16.75 163.74079,16.75 C165.79079,16.75 166.44079,18.2 166.44079,20.025 L160.74079,20.025 Z M168.84079,20.775 C168.81579,18.075 167.04079,16 164.31579,16 C160.66579,16 158.79079,19.25 158.79079,22.575 C158.79079,25.825 160.76579,28.25 164.14079,28.25 C166.64079,28.25 168.49079,26.075 169.46579,24 L169.04079,23.725 C168.19079,25.025 166.89079,26.35 164.71579,26.35 C161.99079,26.35 160.69079,23.9 160.69079,21.1 L160.69079,20.775 L168.84079,20.775 Z" id="ZeroHedge" fill="#000000"></path>
                <g id="mark">
                    <path d="M21.7782035,30.0901769 C21.7724475,28.9063404 21.6463919,21.6717194 19.2116196,21.5476874 C18.9537525,21.5354589 15.3603049,21.5342942 14.8405414,21.5342942 C14.500364,21.5342942 11.5107169,21.5342942 11.2914148,21.5406997 C8.87275916,21.62397 9.05119401,29.5078668 9.05119401,29.5078668 C9.05119401,29.5078668 8.81807752,29.4944736 8.62467717,29.5078668 C8.58380983,29.3168691 7.45103634,24.8651082 7.10970775,20.8675492 C6.83975309,17.7003644 7.26742113,14.222226 7.65364623,11.5861081 C7.71005467,11.5872727 7.9529563,11.5948427 8.01799868,11.597172 C8.19988711,14.5529782 9.28258372,18.7467757 10.2921796,18.890024 C10.7900704,18.9581543 11.2580302,19.0035744 11.687425,19.0216261 C11.9119075,19.0321076 14.2989053,19.0321076 14.7858598,19.0321076 C15.1047401,19.0321076 19.1454261,19.030943 19.434951,19.0117268 C21.2572888,18.8964294 21.7166147,11.9215187 21.7166147,11.9215187 C21.7166147,11.9215187 21.907137,11.9226833 22.0999618,11.9203541 C22.4412904,13.5013261 23.183234,17.0225554 23.2586371,20.602598 C23.3397962,24.5186336 22.5541072,28.4434039 22.1770917,30.0901769 L21.7782035,30.0901769 Z" id="Fill-1" fill="#000000"></path>
                    <g id="Group-5" transform="translate(0.000000, 0.548769)">
                        <mask id="mask-2" fill="white">
                            <use xlink:href="#path-1"></use>
                        </mask>
                        <g id="Clip-4"></g>
                        <path d="M20.3178581,34.4159841 C18.8333953,35.9899684 15.8673477,37.0806352 13.1482308,35.8909757 C9.74472998,34.4037556 7.95577672,30.3147739 6.99510653,26.1110771 C6.85005626,25.4763591 6.72400068,24.8410587 6.61348619,24.2098346 C5.94924808,20.4050202 5.84794313,16.1337755 6.45231923,12.3574943 C6.9835946,9.03192118 8.06283763,6.09067274 9.78502172,4.18593633 C10.6046708,3.28044408 11.8416272,2.34467172 13.5914399,2.13212852 C17.1860387,1.69539593 19.3825142,3.68107345 20.7610673,5.85425483 C21.8167108,7.51733255 22.6628374,9.80173517 23.2499456,12.3790398 C24.2215521,16.6438791 24.4748145,21.7146357 23.772587,26.1110771 C23.2309509,29.5082744 22.1165965,32.5065892 20.3178581,34.4159841 M26.6609292,5.27776781 C24.2664486,2.00227336 20.0910732,-0.322308654 14.7345742,0.0783207117 C12.1323034,0.273394603 10.0549764,1.16083523 8.32703633,2.32429086 C3.36021599,5.66558635 0.261205594,11.821769 0.0160015767,19.717312 C-0.164735657,25.5200324 1.2057591,29.9589824 3.69521303,33.1966267 C6.15300916,36.392927 10.210963,38.7687523 15.624446,38.3931623 C20.1952561,38.0781325 23.8197859,35.2189898 26.1538289,31.8479965 C28.5350707,28.4100375 30.0195335,24.3198912 30.2774006,18.8188074 C30.5352678,13.3229645 29.080736,8.58645394 26.6609292,5.27776781" id="Fill-3" fill="#000000" mask="url(#mask-2)"></path>
                    </g>
                </g>
            </g>
        </g>
    </g>
</svg>